<?xml version="1.0" standalone="no"?>
<!DOCTYPE svg PUBLIC "-//W3C//DTD SVG 20010904//EN"
 "http://www.w3.org/TR/2001/REC-SVG-20010904/DTD/svg10.dtd">
<svg version="1.0" xmlns="http://www.w3.org/2000/svg"
 width="200.000000pt" height="200.000000pt" viewBox="0 0 200.000000 200.000000"
 preserveAspectRatio="xMidYMid meet">

<g transform="translate(0.000000,200.000000) scale(0.100000,-0.100000)"
fill="#000000" stroke="none">
<path d="M811 1236 c-8 -9 -11 -55 -9 -137 l3 -124 77 -3 77 -3 4 -32 4 -32 1
33 c2 28 5 32 31 32 26 0 30 -4 34 -32 l4 -33 1 32 2 32 78 3 77 3 3 124 c2
82 -1 128 -9 137 -9 11 -50 14 -189 14 -139 0 -180 -3 -189 -14z m377 -128 l3
-128 -191 0 -190 0 0 123 c0 68 3 127 7 131 4 3 88 5 187 4 l181 -3 3 -127z"/>
<path d="M997 1113 c-15 -37 -25 -68 -23 -70 2 -2 16 26 30 63 15 36 25 68 23
70 -2 2 -16 -26 -30 -63z"/>
<path d="M908 1144 c-38 -20 -36 -28 2 -9 17 9 30 18 30 20 0 7 -1 6 -32 -11z"/>
<path d="M1060 1156 c0 -3 14 -12 30 -21 17 -9 30 -13 30 -11 0 3 -13 12 -30
21 -16 9 -30 13 -30 11z"/>
<path d="M856 1111 c-3 -5 1 -11 9 -14 9 -4 12 -1 8 9 -6 16 -10 17 -17 5z"/>
<path d="M1127 1106 c-4 -10 -1 -13 8 -9 8 3 12 9 9 14 -7 12 -11 11 -17 -5z"/>
<path d="M904 1076 c11 -9 24 -16 30 -16 12 0 7 5 -24 19 -24 11 -24 11 -6 -3z"/>
<path d="M1080 1075 c-14 -8 -20 -14 -14 -15 5 0 19 7 30 15 24 18 16 19 -16
0z"/>
</g>
</svg>
